<mxfile host="app.diagrams.net" agent="Mozilla/5.0 (Macintosh; Intel Mac OS X 10.15; rv:133.0) Gecko/20100101 Firefox/133.0" version="26.2.14">
  <diagram name="Page-1" id="nvPgF2uKXpndHgitnm1l">
    <mxGraphModel dx="679" dy="390" grid="1" gridSize="10" guides="1" tooltips="1" connect="1" arrows="1" fold="1" page="1" pageScale="1" pageWidth="827" pageHeight="1169" math="0" shadow="0">
      <root>
        <mxCell id="0" />
        <mxCell id="1" parent="0" />
        <mxCell id="quCFVB519tc5CZQaFRDl-1" value="" style="swimlane;startSize=0;" vertex="1" parent="1">
          <mxGeometry x="80" y="80" width="70" height="70" as="geometry" />
        </mxCell>
        <mxCell id="quCFVB519tc5CZQaFRDl-27" value="&lt;font&gt;+ / Z&lt;/font&gt;" style="text;html=1;align=center;verticalAlign=middle;resizable=0;points=[];autosize=1;strokeColor=none;fillColor=none;fontSize=25;fontFamily=Garamond;" vertex="1" parent="quCFVB519tc5CZQaFRDl-1">
          <mxGeometry y="15" width="70" height="40" as="geometry" />
        </mxCell>
        <mxCell id="quCFVB519tc5CZQaFRDl-5" value="" style="swimlane;startSize=0;" vertex="1" parent="1">
          <mxGeometry x="160" y="80" width="70" height="70" as="geometry" />
        </mxCell>
        <mxCell id="quCFVB519tc5CZQaFRDl-28" value="&lt;u&gt;&lt;font&gt;C&lt;/font&gt;&lt;/u&gt;" style="text;html=1;align=center;verticalAlign=middle;resizable=0;points=[];autosize=1;strokeColor=none;fillColor=none;fontSize=25;fontFamily=Garamond;" vertex="1" parent="quCFVB519tc5CZQaFRDl-5">
          <mxGeometry x="15" y="15" width="40" height="40" as="geometry" />
        </mxCell>
        <mxCell id="quCFVB519tc5CZQaFRDl-6" value="" style="swimlane;startSize=0;" vertex="1" parent="1">
          <mxGeometry x="80" y="160" width="70" height="70" as="geometry">
            <mxRectangle x="80" y="160" width="50" height="40" as="alternateBounds" />
          </mxGeometry>
        </mxCell>
        <mxCell id="quCFVB519tc5CZQaFRDl-29" value="&lt;u&gt;&lt;font&gt;T&lt;/font&gt;&lt;/u&gt;" style="text;html=1;align=center;verticalAlign=middle;resizable=0;points=[];autosize=1;strokeColor=none;fillColor=none;fontSize=25;fontFamily=Garamond;" vertex="1" parent="quCFVB519tc5CZQaFRDl-6">
          <mxGeometry x="15" y="15" width="40" height="40" as="geometry" />
        </mxCell>
        <mxCell id="quCFVB519tc5CZQaFRDl-7" value="" style="swimlane;startSize=0;" vertex="1" parent="1">
          <mxGeometry x="320" y="80" width="150" height="70" as="geometry" />
        </mxCell>
        <mxCell id="quCFVB519tc5CZQaFRDl-30" value="&lt;font&gt;+ / Z&lt;/font&gt;" style="text;html=1;align=center;verticalAlign=middle;resizable=0;points=[];autosize=1;strokeColor=none;fillColor=none;fontSize=25;fontFamily=Garamond;" vertex="1" parent="quCFVB519tc5CZQaFRDl-7">
          <mxGeometry x="40" y="15" width="70" height="40" as="geometry" />
        </mxCell>
        <mxCell id="quCFVB519tc5CZQaFRDl-8" value="" style="swimlane;startSize=0;" vertex="1" parent="1">
          <mxGeometry x="320" y="160" width="70" height="70" as="geometry" />
        </mxCell>
        <mxCell id="quCFVB519tc5CZQaFRDl-32" value="&lt;u&gt;&lt;font&gt;T&lt;/font&gt;&lt;/u&gt;" style="text;html=1;align=center;verticalAlign=middle;resizable=0;points=[];autosize=1;strokeColor=none;fillColor=none;fontSize=25;fontFamily=Garamond;" vertex="1" parent="quCFVB519tc5CZQaFRDl-8">
          <mxGeometry x="15" y="15" width="40" height="40" as="geometry" />
        </mxCell>
        <mxCell id="quCFVB519tc5CZQaFRDl-9" value="" style="swimlane;startSize=0;" vertex="1" parent="1">
          <mxGeometry x="400" y="160" width="70" height="70" as="geometry" />
        </mxCell>
        <mxCell id="quCFVB519tc5CZQaFRDl-31" value="&lt;u&gt;&lt;font&gt;C&lt;/font&gt;&lt;/u&gt;" style="text;html=1;align=center;verticalAlign=middle;resizable=0;points=[];autosize=1;strokeColor=none;fillColor=none;fontSize=25;fontFamily=Garamond;" vertex="1" parent="quCFVB519tc5CZQaFRDl-9">
          <mxGeometry x="15" y="15" width="40" height="40" as="geometry" />
        </mxCell>
        <mxCell id="quCFVB519tc5CZQaFRDl-12" value="" style="swimlane;startSize=0;" vertex="1" parent="1">
          <mxGeometry x="80" y="350" width="150" height="70" as="geometry" />
        </mxCell>
        <mxCell id="quCFVB519tc5CZQaFRDl-35" value="&lt;u&gt;&lt;font&gt;T&lt;/font&gt;&lt;/u&gt;" style="text;html=1;align=center;verticalAlign=middle;resizable=0;points=[];autosize=1;strokeColor=none;fillColor=none;fontSize=25;fontFamily=Garamond;" vertex="1" parent="quCFVB519tc5CZQaFRDl-12">
          <mxGeometry x="55" y="15" width="40" height="40" as="geometry" />
        </mxCell>
        <mxCell id="quCFVB519tc5CZQaFRDl-13" value="" style="swimlane;startSize=0;" vertex="1" parent="1">
          <mxGeometry x="80" y="270" width="70" height="70" as="geometry" />
        </mxCell>
        <mxCell id="quCFVB519tc5CZQaFRDl-33" value="&lt;font&gt;+ / Z&lt;/font&gt;" style="text;html=1;align=center;verticalAlign=middle;resizable=0;points=[];autosize=1;strokeColor=none;fillColor=none;fontSize=25;fontFamily=Garamond;" vertex="1" parent="quCFVB519tc5CZQaFRDl-13">
          <mxGeometry y="15" width="70" height="40" as="geometry" />
        </mxCell>
        <mxCell id="quCFVB519tc5CZQaFRDl-14" value="" style="swimlane;startSize=0;" vertex="1" parent="1">
          <mxGeometry x="160" y="270" width="70" height="70" as="geometry" />
        </mxCell>
        <mxCell id="quCFVB519tc5CZQaFRDl-34" value="&lt;u&gt;&lt;font&gt;C&lt;/font&gt;&lt;/u&gt;" style="text;html=1;align=center;verticalAlign=middle;resizable=0;points=[];autosize=1;strokeColor=none;fillColor=none;fontSize=25;fontFamily=Garamond;" vertex="1" parent="quCFVB519tc5CZQaFRDl-14">
          <mxGeometry x="15" y="15" width="40" height="40" as="geometry" />
        </mxCell>
        <mxCell id="quCFVB519tc5CZQaFRDl-15" value="" style="swimlane;startSize=0;" vertex="1" parent="1">
          <mxGeometry x="320" y="350" width="150" height="70" as="geometry" />
        </mxCell>
        <mxCell id="quCFVB519tc5CZQaFRDl-39" value="&lt;u&gt;&lt;font&gt;T&lt;/font&gt;&lt;/u&gt;" style="text;html=1;align=center;verticalAlign=middle;resizable=0;points=[];autosize=1;strokeColor=none;fillColor=none;fontSize=25;fontFamily=Garamond;" vertex="1" parent="quCFVB519tc5CZQaFRDl-15">
          <mxGeometry x="55" y="15" width="40" height="40" as="geometry" />
        </mxCell>
        <mxCell id="quCFVB519tc5CZQaFRDl-16" value="" style="swimlane;startSize=0;" vertex="1" parent="1">
          <mxGeometry x="320" y="270" width="70" height="70" as="geometry" />
        </mxCell>
        <mxCell id="quCFVB519tc5CZQaFRDl-36" value="&lt;u&gt;C&lt;/u&gt; / Z" style="text;html=1;align=center;verticalAlign=middle;resizable=0;points=[];autosize=1;strokeColor=none;fillColor=none;fontSize=25;fontFamily=Garamond;" vertex="1" parent="quCFVB519tc5CZQaFRDl-16">
          <mxGeometry y="15" width="70" height="40" as="geometry" />
        </mxCell>
        <mxCell id="quCFVB519tc5CZQaFRDl-17" value="" style="swimlane;startSize=0;" vertex="1" parent="1">
          <mxGeometry x="400" y="270" width="70" height="70" as="geometry" />
        </mxCell>
        <mxCell id="quCFVB519tc5CZQaFRDl-37" value="0 / &lt;u&gt;C&lt;/u&gt;" style="text;html=1;align=center;verticalAlign=middle;resizable=0;points=[];autosize=1;strokeColor=none;fillColor=none;fontSize=25;fontFamily=Garamond;" vertex="1" parent="quCFVB519tc5CZQaFRDl-17">
          <mxGeometry y="15" width="70" height="40" as="geometry" />
        </mxCell>
        <mxCell id="quCFVB519tc5CZQaFRDl-19" value="" style="endArrow=none;html=1;rounded=0;strokeWidth=7;fillColor=#d5e8d4;strokeColor=#82b366;" edge="1" parent="1">
          <mxGeometry width="50" height="50" relative="1" as="geometry">
            <mxPoint x="80" y="155" as="sourcePoint" />
            <mxPoint x="150" y="155" as="targetPoint" />
          </mxGeometry>
        </mxCell>
        <mxCell id="quCFVB519tc5CZQaFRDl-20" value="" style="endArrow=none;html=1;rounded=0;strokeWidth=7;fillColor=#dae8fc;strokeColor=#6c8ebf;" edge="1" parent="1">
          <mxGeometry width="50" height="50" relative="1" as="geometry">
            <mxPoint x="154.76" y="80" as="sourcePoint" />
            <mxPoint x="154.76" y="150" as="targetPoint" />
          </mxGeometry>
        </mxCell>
        <mxCell id="quCFVB519tc5CZQaFRDl-21" value="" style="endArrow=none;html=1;rounded=0;strokeWidth=7;fillColor=#d5e8d4;strokeColor=#82b366;" edge="1" parent="1">
          <mxGeometry width="50" height="50" relative="1" as="geometry">
            <mxPoint x="320" y="155" as="sourcePoint" />
            <mxPoint x="390" y="155" as="targetPoint" />
          </mxGeometry>
        </mxCell>
        <mxCell id="quCFVB519tc5CZQaFRDl-22" value="" style="endArrow=none;html=1;rounded=0;strokeWidth=7;fillColor=#dae8fc;strokeColor=#6c8ebf;" edge="1" parent="1">
          <mxGeometry width="50" height="50" relative="1" as="geometry">
            <mxPoint x="400" y="155" as="sourcePoint" />
            <mxPoint x="470" y="155" as="targetPoint" />
          </mxGeometry>
        </mxCell>
        <mxCell id="quCFVB519tc5CZQaFRDl-23" value="" style="endArrow=none;html=1;rounded=0;strokeWidth=7;fillColor=#d5e8d4;strokeColor=#82b366;" edge="1" parent="1">
          <mxGeometry width="50" height="50" relative="1" as="geometry">
            <mxPoint x="80" y="345" as="sourcePoint" />
            <mxPoint x="150" y="345" as="targetPoint" />
          </mxGeometry>
        </mxCell>
        <mxCell id="quCFVB519tc5CZQaFRDl-24" value="" style="endArrow=none;html=1;rounded=0;strokeWidth=7;fillColor=#dae8fc;strokeColor=#6c8ebf;" edge="1" parent="1">
          <mxGeometry width="50" height="50" relative="1" as="geometry">
            <mxPoint x="154.76" y="270" as="sourcePoint" />
            <mxPoint x="154.76" y="340" as="targetPoint" />
          </mxGeometry>
        </mxCell>
        <mxCell id="quCFVB519tc5CZQaFRDl-25" value="" style="endArrow=none;html=1;rounded=0;strokeWidth=7;fillColor=#d5e8d4;strokeColor=#82b366;" edge="1" parent="1">
          <mxGeometry width="50" height="50" relative="1" as="geometry">
            <mxPoint x="320" y="345" as="sourcePoint" />
            <mxPoint x="390" y="345" as="targetPoint" />
          </mxGeometry>
        </mxCell>
        <mxCell id="quCFVB519tc5CZQaFRDl-26" value="" style="endArrow=none;html=1;rounded=0;strokeWidth=7;fillColor=#d5e8d4;strokeColor=#82b366;" edge="1" parent="1">
          <mxGeometry width="50" height="50" relative="1" as="geometry">
            <mxPoint x="400" y="345" as="sourcePoint" />
            <mxPoint x="470" y="345" as="targetPoint" />
          </mxGeometry>
        </mxCell>
        <mxCell id="quCFVB519tc5CZQaFRDl-40" value="a)" style="text;html=1;align=center;verticalAlign=middle;resizable=0;points=[];autosize=1;strokeColor=none;fillColor=none;" vertex="1" parent="1">
          <mxGeometry x="140" y="230" width="30" height="30" as="geometry" />
        </mxCell>
        <mxCell id="quCFVB519tc5CZQaFRDl-41" value="b)" style="text;html=1;align=center;verticalAlign=middle;resizable=0;points=[];autosize=1;strokeColor=none;fillColor=none;" vertex="1" parent="1">
          <mxGeometry x="380" y="230" width="30" height="30" as="geometry" />
        </mxCell>
        <mxCell id="quCFVB519tc5CZQaFRDl-42" value="c)" style="text;html=1;align=center;verticalAlign=middle;resizable=0;points=[];autosize=1;strokeColor=none;fillColor=none;" vertex="1" parent="1">
          <mxGeometry x="130" y="420" width="30" height="30" as="geometry" />
        </mxCell>
        <mxCell id="quCFVB519tc5CZQaFRDl-43" value="d)" style="text;html=1;align=center;verticalAlign=middle;resizable=0;points=[];autosize=1;strokeColor=none;fillColor=none;" vertex="1" parent="1">
          <mxGeometry x="370" y="420" width="30" height="30" as="geometry" />
        </mxCell>
      </root>
    </mxGraphModel>
  </diagram>
</mxfile>
